<svg class='logo' xmlns="http://www.w3.org/2000/svg" width="258" viewBox="0 0 258 45">
<g>
	<rect class="st1" x="17.31" y="15.47" width="11.92" height="11.92"/>
	<path class="st2" d="M45.14,45.14h-45v-45h45V45.14z M5.47,39.81h34.34V5.47H5.47V39.81z"/>
	<path class="st3" d="M30.73,28.89H15.81V13.97h14.92V28.89z M18.81,25.89h8.92v-8.92h-8.92V25.89z"/>
</g>

<g class='st3'>
	<path d="M58.11,4.53v8.83h-2v-7.2H53v7.2h-2V4.53H58.11z"/>
	<path d="M60.07,4.65c0.61-0.1,1.47-0.18,2.69-0.18c1.23,0,2.1,0.24,2.69,0.71c0.56,0.45,0.94,1.18,0.94,2.04
		c0,0.87-0.29,1.6-0.81,2.1c-0.68,0.64-1.68,0.93-2.86,0.93c-0.26,0-0.5-0.01-0.68-0.04v3.16h-1.97V4.65z M62.04,8.66
		c0.17,0.04,0.38,0.05,0.67,0.05c1.06,0,1.71-0.54,1.71-1.44c0-0.81-0.56-1.3-1.55-1.3c-0.41,0-0.68,0.04-0.82,0.08V8.66z"/>
	<path d="M69.14,11.1l-0.63,2.27h-2.06l2.69-8.83h2.61l2.73,8.83h-2.14l-0.68-2.27H69.14z M71.38,9.61l-0.55-1.87
		c-0.16-0.52-0.31-1.18-0.44-1.7h-0.03c-0.13,0.52-0.26,1.19-0.41,1.7l-0.52,1.87H71.38z"/>
	<path d="M77.86,4.53V8.2h0.17l2.43-3.67h2.41l-3.07,3.92c1.13,0.29,1.64,1.07,2.01,2.14c0.31,0.94,0.6,1.9,1.02,2.78H80.7
		c-0.3-0.6-0.47-1.28-0.68-1.94c-0.3-1-0.7-1.76-1.77-1.76h-0.38v3.7h-1.97V4.53H77.86z"/>
	<path d="M85.94,6.21h-2.36V4.53h6.76v1.68h-2.4v7.16h-2V6.21z"/>
	<path d="M93.46,4.53v2.62c0,1.42-0.03,2.82-0.1,4h0.05c0.46-1.04,1.04-2.2,1.57-3.15l1.89-3.47h2.04v8.83h-1.83v-2.61
		c0-1.36,0.03-2.57,0.14-3.72h-0.04c-0.4,1.05-0.96,2.22-1.49,3.15l-1.79,3.19h-2.27V4.53H93.46z"/>
	<path d="M102.7,4.53v2.56c0,1.01,0.54,1.49,1.47,1.49c0.44,0,0.91-0.13,1.29-0.33V4.53h1.98v8.83h-1.98V9.72h-0.04
		c-0.64,0.31-1.24,0.46-1.97,0.46c-1.59,0-2.74-0.85-2.74-2.75v-2.9H102.7z"/>
	<path d="M114.64,9.63h-3.24v2.1h3.61v1.64h-5.61V4.53h5.43v1.64h-3.43v1.83h3.24V9.63z"/>
	<path d="M123.08,13.12c-0.37,0.18-1.19,0.38-2.26,0.38c-3.04,0-4.6-1.9-4.6-4.42c0-3.01,2.14-4.69,4.8-4.69
		c1.03,0,1.81,0.21,2.17,0.39l-0.4,1.59c-0.4-0.17-0.96-0.33-1.67-0.33c-1.58,0-2.8,0.96-2.8,2.92c0,1.77,1.04,2.88,2.82,2.88
		c0.6,0,1.27-0.13,1.66-0.29L123.08,13.12z"/>
	<path d="M126.59,4.53V8.2h0.17l2.43-3.67h2.41l-3.07,3.92c1.13,0.29,1.64,1.07,2.01,2.14c0.31,0.94,0.6,1.9,1.02,2.78h-2.14
		c-0.3-0.6-0.47-1.28-0.68-1.94c-0.3-1-0.7-1.76-1.77-1.76h-0.38v3.7h-1.97V4.53H126.59z"/>
	<path d="M134.96,11.1l-0.63,2.27h-2.06l2.69-8.83h2.61l2.73,8.83h-2.14l-0.68-2.27H134.96z M137.19,9.61l-0.55-1.87
		c-0.16-0.52-0.31-1.18-0.44-1.7h-0.03c-0.13,0.52-0.26,1.19-0.41,1.7l-0.52,1.87H137.19z"/>
	<path d="M140.95,13.37c0.18-0.29,0.33-0.63,0.44-1c0.35-1.01,0.56-2.04,1.23-2.69c0.2-0.2,0.46-0.34,0.73-0.46V9.19
		c-0.98-0.18-1.85-0.87-1.85-2.15c0-0.83,0.37-1.45,0.91-1.87c0.68-0.52,1.75-0.69,2.87-0.69c0.97,0,1.89,0.08,2.53,0.18v8.72h-1.97
		V9.89h-0.48c-0.39,0-0.7,0.12-0.94,0.34c-0.56,0.54-0.78,1.67-1.04,2.39c-0.09,0.26-0.16,0.47-0.31,0.75H140.95z M145.84,6.03
		c-0.14-0.03-0.41-0.08-0.81-0.08c-0.86,0-1.55,0.37-1.55,1.27c0,0.81,0.74,1.25,1.64,1.25c0.26,0,0.54-0.01,0.72-0.04V6.03z"/>
	<path d="M152.64,4.65c0.61-0.1,1.47-0.18,2.69-0.18c1.23,0,2.1,0.24,2.69,0.71c0.56,0.45,0.94,1.18,0.94,2.04
		c0,0.87-0.29,1.6-0.81,2.1c-0.68,0.64-1.68,0.93-2.86,0.93c-0.26,0-0.5-0.01-0.68-0.04v3.16h-1.97V4.65z M154.61,8.66
		c0.17,0.04,0.38,0.05,0.67,0.05c1.06,0,1.71-0.54,1.71-1.44c0-0.81-0.56-1.3-1.55-1.3c-0.41,0-0.68,0.04-0.82,0.08V8.66z"/>
	<path d="M161.71,11.1l-0.63,2.27h-2.06l2.69-8.83h2.61l2.73,8.83h-2.14l-0.68-2.27H161.71z M163.95,9.61l-0.55-1.87
		c-0.16-0.52-0.31-1.18-0.44-1.7h-0.03c-0.13,0.52-0.26,1.19-0.41,1.7L162,9.61H163.95z"/>
	<path d="M174.31,4.53v1.63h-3.86v1.52c0.3-0.04,0.72-0.07,1.07-0.07c0.89,0,1.81,0.22,2.48,0.72c0.61,0.45,1.02,1.14,1.02,2.11
		c0,0.87-0.33,1.53-0.83,1.99c-0.85,0.76-2.23,1.02-3.57,1.02c-0.98,0-1.7-0.07-2.14-0.13V4.53H174.31z M170.43,11.91
		c0.22,0.04,0.5,0.05,0.77,0.05c0.48,0,0.97-0.16,1.29-0.46c0.26-0.24,0.43-0.59,0.43-1.02c0-0.45-0.18-0.77-0.47-1
		c-0.35-0.27-0.85-0.39-1.32-0.39c-0.22,0-0.46,0.01-0.7,0.05V11.91z"/>
	<path d="M184.54,8.86c0,2.9-1.75,4.65-4.32,4.65c-2.61,0-4.14-1.98-4.14-4.5c0-2.65,1.68-4.63,4.28-4.63
		C183.07,4.39,184.54,6.42,184.54,8.86z M178.19,8.98c0,1.73,0.81,2.95,2.14,2.95c1.34,0,2.11-1.28,2.11-3
		c0-1.59-0.76-2.95-2.13-2.95C178.97,5.97,178.19,7.26,178.19,8.98z"/>
	<path d="M187.66,6.21h-2.36V4.53h6.76v1.68h-2.4v7.16h-2V6.21z"/>
	<path d="M194.42,11.1l-0.63,2.27h-2.06l2.69-8.83h2.61l2.73,8.83h-2.14l-0.68-2.27H194.42z M196.66,9.61l-0.55-1.87
		c-0.16-0.52-0.31-1.18-0.44-1.7h-0.03c-0.13,0.52-0.26,1.19-0.41,1.7l-0.52,1.87H196.66z"/>
	<path d="M51,18.76c0.52-0.1,1.58-0.18,2.57-0.18c1.21,0,1.96,0.12,2.6,0.5c0.61,0.33,1.06,0.93,1.06,1.73
		c0,0.79-0.46,1.52-1.45,1.89v0.03c1,0.27,1.75,1.04,1.75,2.18c0,0.8-0.37,1.43-0.91,1.87c-0.64,0.51-1.71,0.8-3.46,0.8
		c-0.98,0-1.71-0.07-2.15-0.13V18.76z M52.97,22.14h0.65c1.04,0,1.6-0.43,1.6-1.09c0-0.67-0.51-1.02-1.41-1.02
		c-0.43,0-0.68,0.03-0.85,0.05V22.14z M52.97,26.06c0.2,0.03,0.43,0.03,0.77,0.03c0.9,0,1.7-0.34,1.7-1.27
		c0-0.89-0.8-1.25-1.79-1.25h-0.68V26.06z"/>
	<path d="M63.82,18.64v2.62c0,1.42-0.03,2.82-0.1,4h0.05c0.46-1.04,1.04-2.2,1.57-3.15l1.89-3.47h2.04v8.83h-1.83v-2.61
		c0-1.36,0.03-2.57,0.14-3.72h-0.04c-0.4,1.05-0.96,2.22-1.49,3.15l-1.79,3.19h-2.27v-8.83H63.82z"/>
	<path d="M77.69,27.23c-0.37,0.18-1.19,0.38-2.26,0.38c-3.04,0-4.6-1.9-4.6-4.42c0-3.01,2.14-4.69,4.8-4.69
		c1.03,0,1.81,0.21,2.17,0.39l-0.4,1.59c-0.4-0.17-0.96-0.33-1.67-0.33c-1.58,0-2.8,0.96-2.8,2.92c0,1.77,1.04,2.88,2.82,2.88
		c0.6,0,1.27-0.13,1.66-0.29L77.69,27.23z"/>
	<path d="M86.35,18.64v8.83h-2v-7.2h-3.12v7.2h-2v-8.83H86.35z"/>
	<path d="M88.31,18.76c0.61-0.1,1.47-0.18,2.69-0.18c1.23,0,2.1,0.24,2.69,0.71c0.56,0.45,0.94,1.18,0.94,2.04
		c0,0.87-0.29,1.6-0.81,2.1c-0.68,0.64-1.68,0.93-2.86,0.93c-0.26,0-0.5-0.01-0.68-0.04v3.16h-1.97V18.76z M90.28,22.77
		c0.17,0.04,0.38,0.05,0.67,0.05c1.06,0,1.71-0.54,1.71-1.44c0-0.81-0.56-1.3-1.55-1.3c-0.41,0-0.68,0.04-0.82,0.08V22.77z"/>
	<path d="M97.38,25.21l-0.63,2.27h-2.06l2.69-8.83h2.61l2.73,8.83h-2.14l-0.68-2.27H97.38z M99.61,23.71l-0.55-1.87
		c-0.16-0.52-0.31-1.18-0.44-1.7h-0.03c-0.13,0.52-0.26,1.19-0.41,1.7l-0.52,1.87H99.61z"/>
	<path d="M104.13,18.76c0.52-0.1,1.58-0.18,2.57-0.18c1.21,0,1.96,0.12,2.6,0.5c0.61,0.33,1.06,0.93,1.06,1.73
		c0,0.79-0.46,1.52-1.45,1.89v0.03c1,0.27,1.75,1.04,1.75,2.18c0,0.8-0.37,1.43-0.91,1.87c-0.64,0.51-1.71,0.8-3.46,0.8
		c-0.98,0-1.71-0.07-2.15-0.13V18.76z M106.1,22.14h0.65c1.04,0,1.6-0.43,1.6-1.09c0-0.67-0.51-1.02-1.41-1.02
		c-0.43,0-0.68,0.03-0.85,0.05V22.14z M106.1,26.06c0.2,0.03,0.43,0.03,0.77,0.03c0.9,0,1.7-0.34,1.7-1.27
		c0-0.89-0.8-1.25-1.79-1.25h-0.68V26.06z"/>
	<path d="M114.07,18.64v2.62c0,1.42-0.03,2.82-0.1,4h0.05c0.46-1.04,1.04-2.2,1.57-3.15l1.89-3.47h2.04v8.83h-1.83v-2.61
		c0-1.36,0.03-2.57,0.14-3.72h-0.04c-0.4,1.05-0.96,2.22-1.49,3.15l-1.79,3.19h-2.27v-8.83H114.07z"/>
	<path d="M123.18,20.32h-2.36v-1.68h6.76v1.68h-2.4v7.16h-2V20.32z"/>
	<path d="M134.11,23.74h-3.24v2.1h3.61v1.64h-5.61v-8.83h5.43v1.64h-3.43v1.83h3.24V23.74z"/>
	<path d="M142.93,18.64v8.83h-1.98v-7.2h-2v2.1c0,2.27-0.29,4.01-1.62,4.8c-0.44,0.25-1.04,0.43-1.75,0.43l-0.25-1.61
		c0.43-0.05,0.78-0.24,1-0.47c0.54-0.55,0.67-1.68,0.67-3.01v-3.87H142.93z"/>
	<path d="M146.88,18.64v3.07c0.27-0.03,0.69-0.07,1.07-0.07c1.89,0,3.5,0.9,3.5,2.87c0,0.84-0.27,1.47-0.7,1.93
		c-0.85,0.87-2.32,1.13-3.69,1.13c-0.98,0-1.71-0.07-2.15-0.13v-8.79H146.88z M146.87,26.02c0.22,0.04,0.46,0.05,0.74,0.05
		c0.97,0,1.75-0.47,1.75-1.47c0-1.01-0.77-1.43-1.72-1.43c-0.29,0-0.52,0.03-0.77,0.05V26.02z"/>
	<path d="M155,18.64v3.4h3.27v-3.4h1.98v8.83h-1.98v-3.7H155v3.7h-2v-8.83H155z"/>
	<path d="M164.22,18.64v3.08c0.25-0.04,0.65-0.08,0.98-0.08c1.81,0,3.48,0.9,3.48,2.9c0,0.83-0.27,1.44-0.7,1.9
		c-0.85,0.87-2.32,1.13-3.61,1.13c-0.95,0-1.68-0.07-2.13-0.13v-8.79H164.22z M164.21,26.02c0.17,0.04,0.4,0.05,0.68,0.05
		c0.87,0,1.71-0.51,1.71-1.48c0-1.01-0.93-1.42-1.68-1.42c-0.27,0-0.51,0.03-0.7,0.05V26.02z M171.47,18.64v8.83h-1.98v-8.83H171.47
		z"/>
	<path d="M178.22,27.47l-0.8-1.6c-0.33-0.62-0.53-1.07-0.78-1.59h-0.03c-0.18,0.51-0.4,0.97-0.68,1.59l-0.73,1.6h-2.27l2.54-4.47
		l-2.45-4.36h2.28l0.77,1.61c0.26,0.54,0.46,0.97,0.67,1.47h0.03c0.21-0.56,0.38-0.96,0.6-1.47l0.74-1.61h2.27l-2.48,4.31l2.61,4.52
		H178.22z"/>
	<path d="M186.67,18.64v3.67h0.17l2.43-3.67h2.41l-3.07,3.92c1.13,0.29,1.64,1.07,2.01,2.14c0.31,0.94,0.6,1.9,1.02,2.78h-2.14
		c-0.3-0.6-0.47-1.28-0.68-1.94c-0.3-1-0.7-1.76-1.77-1.76h-0.38v3.7h-1.97v-8.83H186.67z"/>
	<path d="M200.66,22.97c0,2.9-1.75,4.65-4.32,4.65c-2.61,0-4.14-1.98-4.14-4.5c0-2.65,1.68-4.63,4.28-4.63
		C199.19,18.5,200.66,20.53,200.66,22.97z M194.31,23.08c0,1.73,0.81,2.95,2.14,2.95c1.34,0,2.11-1.28,2.11-3
		c0-1.59-0.76-2.95-2.13-2.95C195.09,20.08,194.31,21.37,194.31,23.08z"/>
	<path d="M208.7,18.64v8.83h-1.98v-7.2h-2v2.1c0,2.27-0.29,4.01-1.62,4.8c-0.44,0.25-1.04,0.43-1.75,0.43l-0.25-1.61
		c0.43-0.05,0.78-0.24,1-0.47c0.54-0.55,0.67-1.68,0.67-3.01v-3.87H208.7z"/>
	<path d="M218.72,22.97c0,2.9-1.75,4.65-4.32,4.65c-2.61,0-4.14-1.98-4.14-4.5c0-2.65,1.68-4.63,4.28-4.63
		C217.25,18.5,218.72,20.53,218.72,22.97z M212.37,23.08c0,1.73,0.81,2.95,2.14,2.95c1.34,0,2.11-1.28,2.11-3
		c0-1.59-0.76-2.95-2.13-2.95C213.15,20.08,212.37,21.37,212.37,23.08z"/>
	<path d="M222.26,18.64v3.4h3.27v-3.4h1.98v8.83h-1.98v-3.7h-3.27v3.7h-2v-8.83H222.26z"/>
	<path d="M231.32,18.64v2.62c0,1.42-0.03,2.82-0.1,4h0.05c0.46-1.04,1.04-2.2,1.57-3.15l1.89-3.47h2.04v8.83h-1.83v-2.61
		c0-1.36,0.03-2.57,0.14-3.72h-0.04c-0.4,1.05-0.96,2.22-1.49,3.15l-1.79,3.19h-2.27v-8.83H231.32z"/>
	<path d="M237.98,27.47c0.18-0.29,0.33-0.63,0.44-1c0.35-1.01,0.56-2.04,1.23-2.69c0.2-0.2,0.46-0.34,0.73-0.46v-0.04
		c-0.98-0.18-1.85-0.87-1.85-2.15c0-0.83,0.37-1.45,0.91-1.87c0.68-0.52,1.75-0.69,2.87-0.69c0.97,0,1.89,0.08,2.53,0.18v8.72h-1.97
		V24h-0.48c-0.39,0-0.7,0.12-0.94,0.34c-0.56,0.54-0.78,1.67-1.04,2.39c-0.09,0.26-0.16,0.47-0.31,0.75H237.98z M242.87,20.14
		c-0.14-0.03-0.41-0.08-0.81-0.08c-0.86,0-1.55,0.37-1.55,1.27c0,0.81,0.74,1.25,1.64,1.25c0.26,0,0.54-0.01,0.72-0.04V20.14z"/>
	<path d="M251.44,27.47l-0.8-1.6c-0.33-0.62-0.53-1.07-0.78-1.59h-0.03c-0.18,0.51-0.4,0.97-0.68,1.59l-0.73,1.6h-2.27l2.54-4.47
		l-2.45-4.36h2.28l0.77,1.61c0.26,0.54,0.46,0.97,0.67,1.47h0.03c0.21-0.56,0.38-0.96,0.6-1.47l0.74-1.61h2.27l-2.48,4.31l2.61,4.52
		H251.44z"/>
	<path d="M254.83,26.41c0-0.71,0.48-1.22,1.17-1.22c0.69,0,1.16,0.5,1.16,1.22c0,0.69-0.47,1.21-1.17,1.21
		C255.31,27.62,254.83,27.11,254.83,26.41z"/>
	<path d="M52.83,32.75v2.62c0,1.42-0.03,2.82-0.1,4h0.05c0.46-1.04,1.04-2.2,1.57-3.15l1.89-3.47h2.04v8.83h-1.83v-2.61
		c0-1.36,0.03-2.57,0.14-3.72h-0.04c-0.4,1.05-0.96,2.22-1.49,3.15l-1.79,3.19H51v-8.83H52.83z"/>
	<path d="M61.94,34.43h-2.36v-1.68h6.76v1.68h-2.4v7.16h-2V34.43z"/>
	<path d="M75.25,37.07c0,2.9-1.75,4.65-4.32,4.65c-2.61,0-4.13-1.98-4.13-4.5c0-2.65,1.68-4.63,4.28-4.63
		C73.78,32.6,75.25,34.64,75.25,37.07z M68.9,37.19c0,1.73,0.81,2.95,2.14,2.95c1.34,0,2.11-1.28,2.11-3c0-1.59-0.76-2.95-2.13-2.95
		C69.68,34.19,68.9,35.47,68.9,37.19z"/>
	<path d="M82.12,32.75v1.64h-3.33v7.2h-2v-8.83H82.12z"/>
	<path d="M85.24,32.75v2.62c0,1.42-0.03,2.82-0.1,4h0.05c0.46-1.04,1.04-2.2,1.57-3.15l1.89-3.47h2.04v8.83h-1.83v-2.61
		c0-1.36,0.03-2.57,0.14-3.72h-0.04c-0.4,1.05-0.96,2.22-1.49,3.15l-1.79,3.19h-2.27v-8.83H85.24z"/>
	<path d="M97.35,32.75v2.62c0,1.42-0.03,2.82-0.1,4h0.05c0.46-1.04,1.04-2.2,1.57-3.15l1.89-3.47h2.04v8.83h-1.83v-2.61
		c0-1.36,0.03-2.57,0.14-3.72h-0.04c-0.4,1.05-0.96,2.22-1.49,3.15l-1.79,3.19h-2.27v-8.83H97.35z"/>
	<path d="M114.75,32.75v8.83h-2v-7.2h-3.12v7.2h-2v-8.83H114.75z"/>
	<path d="M121.94,37.85h-3.24v2.1h3.61v1.64h-5.61v-8.83h5.43v1.64h-3.43v1.83h3.24V37.85z"/>
	<path d="M123.91,32.87c0.61-0.1,1.47-0.18,2.69-0.18c1.23,0,2.1,0.24,2.69,0.71c0.56,0.45,0.94,1.18,0.94,2.04
		c0,0.87-0.29,1.6-0.81,2.1c-0.68,0.64-1.68,0.93-2.86,0.93c-0.26,0-0.5-0.01-0.68-0.04v3.16h-1.97V32.87z M125.88,36.88
		c0.17,0.04,0.38,0.05,0.67,0.05c1.06,0,1.71-0.54,1.71-1.44c0-0.81-0.56-1.3-1.55-1.3c-0.41,0-0.68,0.04-0.82,0.08V36.88z"/>
	<path d="M138.15,41.33c-0.37,0.18-1.19,0.38-2.26,0.38c-3.04,0-4.6-1.9-4.6-4.42c0-3.01,2.14-4.69,4.8-4.69
		c1.03,0,1.81,0.21,2.17,0.39l-0.4,1.59c-0.4-0.17-0.96-0.33-1.67-0.33c-1.58,0-2.8,0.96-2.8,2.92c0,1.77,1.04,2.88,2.82,2.88
		c0.6,0,1.27-0.13,1.66-0.29L138.15,41.33z"/>
	<path d="M146.81,32.75v8.83h-2v-7.2h-3.12v7.2h-2v-8.83H146.81z"/>
	<path d="M154,37.85h-3.24v2.1h3.61v1.64h-5.61v-8.83h5.43v1.64h-3.43v1.83H154V37.85z"/>
	<path d="M157.94,32.75v3.67h0.17l2.43-3.67h2.41l-3.07,3.92c1.13,0.29,1.64,1.07,2.01,2.14c0.31,0.94,0.6,1.9,1.02,2.78h-2.14
		c-0.3-0.6-0.47-1.28-0.68-1.94c-0.3-1-0.7-1.76-1.77-1.76h-0.38v3.7h-1.97v-8.83H157.94z"/>
	<path d="M166.02,34.43h-2.36v-1.68h6.76v1.68h-2.4v7.16h-2V34.43z"/>
	<path d="M173.54,32.75v2.62c0,1.42-0.03,2.82-0.1,4h0.05c0.46-1.04,1.04-2.2,1.57-3.15l1.89-3.47h2.04v8.83h-1.83v-2.61
		c0-1.36,0.03-2.57,0.14-3.72h-0.04c-0.4,1.05-0.96,2.22-1.49,3.15l-1.79,3.19h-2.27v-8.83H173.54z"/>
	<path d="M180.95,32.87c0.52-0.1,1.58-0.18,2.57-0.18c1.21,0,1.96,0.12,2.6,0.5c0.61,0.33,1.06,0.93,1.06,1.73
		c0,0.79-0.46,1.52-1.45,1.89v0.03c1,0.27,1.75,1.04,1.75,2.18c0,0.8-0.37,1.43-0.91,1.87c-0.64,0.51-1.71,0.8-3.46,0.8
		c-0.98,0-1.71-0.07-2.15-0.13V32.87z M182.92,36.25h0.65c1.04,0,1.6-0.43,1.6-1.09c0-0.67-0.51-1.02-1.41-1.02
		c-0.43,0-0.68,0.03-0.85,0.05V36.25z M182.92,40.17c0.2,0.03,0.43,0.03,0.77,0.03c0.9,0,1.7-0.34,1.7-1.27
		c0-0.89-0.8-1.25-1.79-1.25h-0.68V40.17z"/>
	<path d="M191.06,32.75v3.08c0.25-0.04,0.65-0.08,0.98-0.08c1.81,0,3.48,0.9,3.48,2.9c0,0.83-0.27,1.44-0.7,1.9
		c-0.85,0.87-2.32,1.13-3.61,1.13c-0.95,0-1.68-0.07-2.13-0.13v-8.79H191.06z M191.04,40.13c0.17,0.04,0.4,0.05,0.68,0.05
		c0.87,0,1.71-0.51,1.71-1.48c0-1.01-0.93-1.42-1.68-1.42c-0.27,0-0.51,0.03-0.7,0.05V40.13z M198.31,32.75v8.83h-1.98v-8.83H198.31
		z"/>
	<path d="M200.38,40.52c0-0.71,0.48-1.22,1.17-1.22s1.16,0.5,1.16,1.22c0,0.69-0.47,1.21-1.17,1.21
		C200.86,41.73,200.38,41.22,200.38,40.52z"/>
</g>
</svg>
